<?xml version="1.0" encoding="UTF-8"?>
<svg xmlns="http://www.w3.org/2000/svg" xmlns:xlink="http://www.w3.org/1999/xlink" width="64px" height="64px" viewBox="0 0 64 64" version="1.1">
<g id="surface1">
<path style=" stroke:none;fill-rule:nonzero;fill:rgb(18.039216%,74.117647%,34.901961%);fill-opacity:1;" d="M 32 0 C 14.328125 0 0 14.328125 0 32 C 0 49.671875 14.328125 64 32 64 C 49.671875 64 64 49.671875 64 32 C 64 14.328125 49.671875 0.00390625 32 0 Z M 46.675781 46.152344 C 46.101562 47.09375 44.871094 47.390625 43.933594 46.816406 C 36.417969 42.222656 26.960938 41.1875 15.820312 43.730469 C 14.746094 43.976562 13.679688 43.304688 13.433594 42.230469 C 13.1875 41.15625 13.855469 40.085938 14.933594 39.839844 C 27.121094 37.058594 37.578125 38.257812 46.015625 43.410156 C 46.953125 43.988281 47.253906 45.210938 46.675781 46.152344 Z M 50.589844 37.441406 C 49.867188 38.617188 48.332031 38.984375 47.160156 38.261719 C 38.558594 32.976562 25.445312 31.445312 15.273438 34.53125 C 13.953125 34.933594 12.558594 34.1875 12.15625 32.871094 C 11.761719 31.550781 12.503906 30.160156 13.820312 29.757812 C 25.441406 26.234375 39.890625 27.941406 49.769531 34.011719 C 50.941406 34.734375 51.3125 36.269531 50.589844 37.441406 Z M 50.925781 28.367188 C 40.613281 22.242188 23.597656 21.679688 13.75 24.664062 C 12.167969 25.144531 10.496094 24.253906 10.019531 22.671875 C 9.539062 21.089844 10.429688 19.417969 12.015625 18.9375 C 23.316406 15.507812 42.109375 16.167969 53.980469 23.21875 C 55.402344 24.0625 55.871094 25.898438 55.027344 27.320312 C 54.1875 28.742188 52.347656 29.210938 50.925781 28.367188 Z M 50.925781 28.367188 "/>
</g>
</svg>
